<svg width="3239" height="1000" viewBox="0 0 3239 1000" fill="none" xmlns="http://www.w3.org/2000/svg">
<path d="M499.995 1000C776.138 1000 999.996 776.142 999.996 500C999.996 223.858 776.138 0 499.995 0C223.853 0 -0.00390625 223.858 -0.00390625 500C-0.00390625 776.142 223.853 1000 499.995 1000Z" fill="#FF8A00"/>
<mask id="mask0_640_3394" style="mask-type:luminance" maskUnits="userSpaceOnUse" x="0" y="0" width="1000" height="1000">
<path d="M499.999 1000C776.142 1000 1000 776.142 1000 500C1000 223.858 776.142 0 499.999 0C223.857 0 0 223.858 0 500C0 776.142 223.857 1000 499.999 1000Z" fill="white"/>
</mask>
<g mask="url(#mask0_640_3394)">
<path d="M513.914 701.393C520.858 701.393 527.803 701.393 537.062 701.393C555.58 701.393 574.099 696.764 590.302 685.189C611.136 673.615 622.709 655.097 627.339 631.949C634.283 590.282 641.228 548.616 648.173 506.949C659.747 446.764 669.006 384.264 678.265 324.078C680.58 305.56 678.265 287.042 664.377 270.838C655.117 259.264 645.857 252.319 631.969 247.69C606.506 233.801 578.727 229.171 553.264 224.542C504.653 217.597 458.358 219.912 409.747 231.486C388.914 236.116 370.395 243.06 354.191 254.634C326.413 270.838 314.839 296.301 319.469 328.708C326.413 370.375 333.358 414.356 340.303 456.023C349.562 506.949 356.506 557.875 365.765 608.801C368.08 622.69 372.709 636.578 379.653 648.153C398.172 675.93 433.957 701.393 465.5 701.393C488.648 701.393 495.395 701.393 513.914 701.393Z" fill="#342014"/>
<path d="M386.599 692.116C363.45 671.283 347.246 645.82 342.616 615.727C337.987 583.32 331.042 550.912 326.412 520.82C317.153 465.264 307.894 409.709 298.634 356.468C296.32 342.579 294.006 326.375 294.006 312.486C294.006 310.172 294.006 307.857 294.006 305.542C291.691 305.542 291.691 305.542 289.376 305.542C263.913 307.857 238.45 312.486 212.987 319.431C185.21 328.69 157.431 342.579 136.597 361.097C125.023 370.357 118.079 379.616 113.449 393.505C108.82 407.394 113.45 421.283 120.395 435.172C159.747 504.616 199.098 574.06 238.45 643.505C252.339 668.968 275.487 685.171 303.264 694.431C331.042 703.69 358.821 701.375 386.599 692.116Z" fill="#342014"/>
<path d="M627.309 694.44C652.772 701.384 678.234 701.384 703.697 694.44C729.16 685.18 747.679 671.291 761.568 648.143C800.919 576.384 842.586 506.94 881.938 435.18C895.827 409.717 893.513 388.884 874.994 368.051C865.735 358.791 856.475 351.847 847.216 344.903C807.864 319.44 761.568 305.551 715.271 303.236C712.956 303.236 712.958 303.236 710.643 303.236C710.643 310.18 709.5 317.032 708.327 324.069C701.383 365.736 694.439 405.088 687.495 446.754C678.235 506.94 666.66 567.125 657.401 629.625C655.086 645.829 650.458 664.347 641.198 678.236C636.569 682.866 631.938 689.81 627.309 694.44Z" fill="#342014"/>
<path d="M217.599 668.993C175.932 594.919 134.266 523.16 92.5995 449.086C92.5995 449.086 92.5986 449.086 90.2838 449.086L87.9695 451.401C37.0436 497.697 4.63649 555.567 -11.5672 620.382C-20.8265 652.79 -9.25211 680.567 16.2109 703.716C41.6738 724.549 69.451 726.864 99.5436 715.29C132.5 702.614 160.5 691 194 678C202 675.5 207.5 673 217.599 668.993Z" fill="#342014"/>
<path d="M784.734 668.985C786.5 670 787.5 670.5 789.364 671.299C827.717 687.747 867 702.5 905.105 717.596C915.5 721.714 925.938 724.54 935.197 724.54C986.123 724.54 1025.48 675.929 1013.9 627.318C1006.96 599.54 997.698 576.392 986.124 550.929C967.605 513.892 944.457 481.485 914.365 453.707L912.049 451.392C868.068 523.151 826.401 597.225 784.734 668.985Z" fill="#342014"/>
</g>
<path d="M1227.1 299V72.8281H1274.56C1297.31 72.8281 1315.28 75.0742 1328.47 79.5664C1342.63 83.9609 1355.47 91.4316 1366.99 101.979C1390.33 123.268 1402 151.246 1402 185.914C1402 220.68 1389.84 248.805 1365.53 270.289C1353.32 281.031 1340.53 288.502 1327.15 292.701C1314.65 296.9 1296.92 299 1273.97 299H1227.1ZM1261.23 266.92H1276.61C1291.94 266.92 1304.69 265.309 1314.84 262.086C1325 258.668 1334.18 253.248 1342.38 245.826C1359.18 230.494 1367.58 210.523 1367.58 185.914C1367.58 161.109 1359.28 140.992 1342.68 125.562C1327.73 111.793 1305.71 104.908 1276.61 104.908H1261.23V266.92ZM1568.7 235.426H1466.46C1467.33 247.145 1471.14 256.471 1477.88 263.404C1484.62 270.24 1493.26 273.658 1503.81 273.658C1512.01 273.658 1518.8 271.705 1524.17 267.799C1529.44 263.893 1535.45 256.666 1542.19 246.119L1570.02 261.646C1565.72 268.971 1561.18 275.27 1556.4 280.543C1551.61 285.719 1546.48 290.016 1541.02 293.434C1535.55 296.754 1529.64 299.195 1523.29 300.758C1516.94 302.32 1510.06 303.102 1502.64 303.102C1481.35 303.102 1464.26 296.266 1451.37 282.594C1438.48 268.824 1432.03 250.562 1432.03 227.809C1432.03 205.25 1438.28 186.988 1450.78 173.023C1463.38 159.254 1480.08 152.369 1500.88 152.369C1521.88 152.369 1538.48 159.059 1550.68 172.438C1562.79 185.719 1568.85 204.127 1568.85 227.662L1568.7 235.426ZM1534.86 208.473C1530.27 190.895 1519.19 182.105 1501.61 182.105C1497.61 182.105 1493.85 182.74 1490.33 184.01C1486.82 185.182 1483.59 186.939 1480.66 189.283C1477.83 191.529 1475.39 194.264 1473.34 197.486C1471.29 200.709 1469.73 204.371 1468.65 208.473H1534.86ZM1687.79 180.641L1660.55 195.143C1656.25 186.354 1650.93 181.959 1644.58 181.959C1641.55 181.959 1638.96 182.984 1636.82 185.035C1634.67 186.988 1633.59 189.527 1633.59 192.652C1633.59 198.121 1639.94 203.541 1652.64 208.912C1670.12 216.432 1681.88 223.365 1687.94 229.713C1693.99 236.061 1697.02 244.605 1697.02 255.348C1697.02 269.117 1691.94 280.641 1681.79 289.918C1671.92 298.707 1660.01 303.102 1646.04 303.102C1622.12 303.102 1605.18 291.432 1595.21 268.092L1623.34 255.055C1627.25 261.891 1630.22 266.236 1632.28 268.092C1636.28 271.803 1641.06 273.658 1646.63 273.658C1657.76 273.658 1663.33 268.58 1663.33 258.424C1663.33 252.564 1659.03 247.096 1650.44 242.018C1647.12 240.357 1643.8 238.746 1640.48 237.184C1637.16 235.621 1633.79 234.01 1630.37 232.35C1620.8 227.662 1614.06 222.975 1610.16 218.287C1605.18 212.33 1602.69 204.664 1602.69 195.289C1602.69 182.887 1606.93 172.633 1615.43 164.527C1624.12 156.422 1634.67 152.369 1647.07 152.369C1665.33 152.369 1678.91 161.793 1687.79 180.641ZM1831.93 156.324H1865.04V299H1831.93V284.059C1818.36 296.754 1803.76 303.102 1788.13 303.102C1768.41 303.102 1752.1 295.973 1739.21 281.715C1726.42 267.164 1720.02 249 1720.02 227.223C1720.02 205.836 1726.42 188.014 1739.21 173.756C1752 159.498 1768.02 152.369 1787.26 152.369C1803.86 152.369 1818.75 159.205 1831.93 172.877V156.324ZM1753.71 227.223C1753.71 240.895 1757.37 252.027 1764.7 260.621C1772.22 269.312 1781.69 273.658 1793.12 273.658C1805.32 273.658 1815.19 269.459 1822.71 261.061C1830.22 252.369 1833.98 241.334 1833.98 227.955C1833.98 214.576 1830.22 203.541 1822.71 194.85C1815.19 186.354 1805.42 182.105 1793.41 182.105C1782.08 182.105 1772.61 186.402 1764.99 194.996C1757.47 203.688 1753.71 214.43 1753.71 227.223ZM1954.25 272.486L1890.09 156.324H1928.32L1971.97 238.355L2012.7 156.324H2049.9L1936.23 376.637H1898.58L1954.25 272.486ZM2105.42 156.324V238.209C2105.42 261.842 2114.75 273.658 2133.4 273.658C2152.05 273.658 2161.38 261.842 2161.38 238.209V156.324H2194.34V238.941C2194.34 250.367 2192.92 260.23 2190.09 268.531C2187.35 275.953 2182.62 282.643 2175.88 288.6C2164.75 298.268 2150.59 303.102 2133.4 303.102C2116.31 303.102 2102.2 298.268 2091.06 288.6C2084.23 282.643 2079.39 275.953 2076.56 268.531C2073.83 261.891 2072.46 252.027 2072.46 238.941V156.324H2105.42ZM2235.94 156.324H2269.04V169.508C2280.57 158.082 2293.55 152.369 2308.01 152.369C2324.61 152.369 2337.55 157.594 2346.83 168.043C2354.83 176.93 2358.84 191.432 2358.84 211.549V299H2325.73V219.312C2325.73 205.25 2323.78 195.533 2319.87 190.162C2316.06 184.693 2309.13 181.959 2299.07 181.959C2288.13 181.959 2280.37 185.572 2275.78 192.799C2271.29 199.928 2269.04 212.379 2269.04 230.152V299H2235.94V156.324ZM2393.85 226.637C2393.85 206.031 2401.22 188.502 2415.97 174.049C2430.71 159.596 2448.68 152.369 2469.87 152.369C2491.16 152.369 2509.23 159.645 2524.07 174.195C2538.72 188.746 2546.04 206.617 2546.04 227.809C2546.04 249.195 2538.67 267.115 2523.93 281.568C2509.08 295.924 2490.87 303.102 2469.29 303.102C2447.9 303.102 2429.98 295.777 2415.53 281.129C2401.07 266.676 2393.85 248.512 2393.85 226.637ZM2427.54 227.223C2427.54 241.48 2431.35 252.76 2438.96 261.061C2446.78 269.459 2457.08 273.658 2469.87 273.658C2482.76 273.658 2493.07 269.508 2500.78 261.207C2508.5 252.906 2512.35 241.822 2512.35 227.955C2512.35 214.088 2508.5 203.004 2500.78 194.703C2492.97 186.305 2482.67 182.105 2469.87 182.105C2457.28 182.105 2447.07 186.305 2439.26 194.703C2431.45 203.102 2427.54 213.941 2427.54 227.223ZM2663.96 180.641L2636.72 195.143C2632.42 186.354 2627.1 181.959 2620.75 181.959C2617.72 181.959 2615.14 182.984 2612.99 185.035C2610.84 186.988 2609.77 189.527 2609.77 192.652C2609.77 198.121 2616.11 203.541 2628.81 208.912C2646.29 216.432 2658.06 223.365 2664.11 229.713C2670.17 236.061 2673.19 244.605 2673.19 255.348C2673.19 269.117 2668.12 280.641 2657.96 289.918C2648.1 298.707 2636.18 303.102 2622.22 303.102C2598.29 303.102 2581.35 291.432 2571.39 268.092L2599.51 255.055C2603.42 261.891 2606.4 266.236 2608.45 268.092C2612.45 271.803 2617.24 273.658 2622.8 273.658C2633.94 273.658 2639.5 268.58 2639.5 258.424C2639.5 252.564 2635.21 247.096 2626.61 242.018C2623.29 240.357 2619.97 238.746 2616.65 237.184C2613.33 235.621 2609.96 234.01 2606.54 232.35C2596.97 227.662 2590.23 222.975 2586.33 218.287C2581.35 212.33 2578.86 204.664 2578.86 195.289C2578.86 182.887 2583.11 172.633 2591.6 164.527C2600.29 156.422 2610.84 152.369 2623.24 152.369C2641.5 152.369 2655.08 161.793 2663.96 180.641ZM1394.24 384.986V425.416C1374.51 408.912 1354.1 400.66 1333.01 400.66C1309.77 400.66 1290.19 409.01 1274.27 425.709C1258.25 442.311 1250.24 462.623 1250.24 486.646C1250.24 510.377 1258.25 530.396 1274.27 546.705C1290.28 563.014 1309.91 571.168 1333.15 571.168C1345.17 571.168 1355.37 569.215 1363.77 565.309C1368.46 563.355 1373.29 560.719 1378.27 557.398C1383.35 554.078 1388.67 550.074 1394.24 545.387V586.549C1374.71 597.584 1354.2 603.102 1332.71 603.102C1300.39 603.102 1272.8 591.822 1249.95 569.264C1227.2 546.51 1215.82 519.068 1215.82 486.939C1215.82 458.131 1225.34 432.447 1244.38 409.889C1267.82 382.252 1298.14 368.434 1335.35 368.434C1355.66 368.434 1375.29 373.951 1394.24 384.986ZM1424.41 526.637C1424.41 506.031 1431.79 488.502 1446.53 474.049C1461.28 459.596 1479.25 452.369 1500.44 452.369C1521.73 452.369 1539.79 459.645 1554.64 474.195C1569.29 488.746 1576.61 506.617 1576.61 527.809C1576.61 549.195 1569.24 567.115 1554.49 581.568C1539.65 595.924 1521.44 603.102 1499.85 603.102C1478.47 603.102 1460.55 595.777 1446.09 581.129C1431.64 566.676 1424.41 548.512 1424.41 526.637ZM1458.11 527.223C1458.11 541.48 1461.91 552.76 1469.53 561.061C1477.34 569.459 1487.65 573.658 1500.44 573.658C1513.33 573.658 1523.63 569.508 1531.35 561.207C1539.06 552.906 1542.92 541.822 1542.92 527.955C1542.92 514.088 1539.06 503.004 1531.35 494.703C1523.54 486.305 1513.23 482.105 1500.44 482.105C1487.84 482.105 1477.64 486.305 1469.82 494.703C1462.01 503.102 1458.11 513.941 1458.11 527.223ZM1611.62 456.324H1644.58V469.068C1650.63 462.721 1656.01 458.375 1660.69 456.031C1665.48 453.59 1671.14 452.369 1677.69 452.369C1686.38 452.369 1695.46 455.201 1704.93 460.865L1689.84 491.041C1683.59 486.549 1677.49 484.303 1671.53 484.303C1653.56 484.303 1644.58 497.877 1644.58 525.025V599H1611.62V456.324ZM1761.47 676.637H1728.52V456.324H1761.47V471.852C1774.46 458.863 1789.21 452.369 1805.71 452.369C1825.34 452.369 1841.5 459.596 1854.2 474.049C1867.09 488.404 1873.54 506.52 1873.54 528.395C1873.54 549.781 1867.14 567.604 1854.35 581.861C1841.65 596.021 1825.63 603.102 1806.3 603.102C1789.6 603.102 1774.66 596.412 1761.47 583.033V676.637ZM1839.84 528.541C1839.84 514.869 1836.13 503.736 1828.71 495.143C1821.19 486.451 1811.72 482.105 1800.29 482.105C1788.18 482.105 1778.37 486.305 1770.85 494.703C1763.33 503.102 1759.57 514.137 1759.57 527.809C1759.57 541.188 1763.33 552.223 1770.85 560.914C1778.27 569.41 1788.04 573.658 1800.15 573.658C1811.57 573.658 1821 569.361 1828.42 560.768C1836.04 552.174 1839.84 541.432 1839.84 528.541ZM1901.66 526.637C1901.66 506.031 1909.03 488.502 1923.78 474.049C1938.53 459.596 1956.49 452.369 1977.69 452.369C1998.97 452.369 2017.04 459.645 2031.88 474.195C2046.53 488.746 2053.86 506.617 2053.86 527.809C2053.86 549.195 2046.48 567.115 2031.74 581.568C2016.89 595.924 1998.68 603.102 1977.1 603.102C1955.71 603.102 1937.79 595.777 1923.34 581.129C1908.89 566.676 1901.66 548.512 1901.66 526.637ZM1935.35 527.223C1935.35 541.48 1939.16 552.76 1946.78 561.061C1954.59 569.459 1964.89 573.658 1977.69 573.658C1990.58 573.658 2000.88 569.508 2008.59 561.207C2016.31 552.906 2020.17 541.822 2020.17 527.955C2020.17 514.088 2016.31 503.004 2008.59 494.703C2000.78 486.305 1990.48 482.105 1977.69 482.105C1965.09 482.105 1954.88 486.305 1947.07 494.703C1939.26 503.102 1935.35 513.941 1935.35 527.223ZM2088.87 456.324H2121.83V469.068C2127.88 462.721 2133.25 458.375 2137.94 456.031C2142.72 453.59 2148.39 452.369 2154.93 452.369C2163.62 452.369 2172.71 455.201 2182.18 460.865L2167.09 491.041C2160.84 486.549 2154.74 484.303 2148.78 484.303C2130.81 484.303 2121.83 497.877 2121.83 525.025V599H2088.87V456.324ZM2304.2 456.324H2337.3V599H2304.2V584.059C2290.62 596.754 2276.03 603.102 2260.4 603.102C2240.67 603.102 2224.37 595.973 2211.47 581.715C2198.68 567.164 2192.29 549 2192.29 527.223C2192.29 505.836 2198.68 488.014 2211.47 473.756C2224.27 459.498 2240.28 452.369 2259.52 452.369C2276.12 452.369 2291.02 459.205 2304.2 472.877V456.324ZM2225.98 527.223C2225.98 540.895 2229.64 552.027 2236.96 560.621C2244.48 569.312 2253.96 573.658 2265.38 573.658C2277.59 573.658 2287.45 569.459 2294.97 561.061C2302.49 552.369 2306.25 541.334 2306.25 527.955C2306.25 514.576 2302.49 503.541 2294.97 494.85C2287.45 486.354 2277.69 482.105 2265.67 482.105C2254.35 482.105 2244.87 486.402 2237.26 494.996C2229.74 503.688 2225.98 514.43 2225.98 527.223ZM2412.89 487.086V599H2379.93V487.086H2365.87V456.324H2379.93V404.029H2412.89V456.324H2438.53V487.086H2412.89ZM2493.9 456.324V599H2460.94V456.324H2493.9ZM2455.96 396.998C2455.96 391.236 2458.06 386.256 2462.26 382.057C2466.46 377.857 2471.48 375.758 2477.34 375.758C2483.3 375.758 2488.38 377.857 2492.58 382.057C2496.78 386.158 2498.88 391.188 2498.88 397.145C2498.88 403.102 2496.78 408.18 2492.58 412.379C2488.48 416.578 2483.45 418.678 2477.49 418.678C2471.53 418.678 2466.46 416.578 2462.26 412.379C2458.06 408.18 2455.96 403.053 2455.96 396.998ZM2553.37 456.324L2590.28 536.451L2627.05 456.324H2664.11L2589.99 608.814L2516.46 456.324H2553.37ZM2673.93 526.637C2673.93 506.031 2681.3 488.502 2696.04 474.049C2710.79 459.596 2728.76 452.369 2749.95 452.369C2771.24 452.369 2789.31 459.645 2804.15 474.195C2818.8 488.746 2826.12 506.617 2826.12 527.809C2826.12 549.195 2818.75 567.115 2804 581.568C2789.16 595.924 2770.95 603.102 2749.37 603.102C2727.98 603.102 2710.06 595.777 2695.61 581.129C2681.15 566.676 2673.93 548.512 2673.93 526.637ZM2707.62 527.223C2707.62 541.48 2711.43 552.76 2719.04 561.061C2726.86 569.459 2737.16 573.658 2749.95 573.658C2762.84 573.658 2773.14 569.508 2780.86 561.207C2788.57 552.906 2792.43 541.822 2792.43 527.955C2792.43 514.088 2788.57 503.004 2780.86 494.703C2773.05 486.305 2762.74 482.105 2749.95 482.105C2737.35 482.105 2727.15 486.305 2719.34 494.703C2711.52 503.102 2707.62 513.941 2707.62 527.223ZM2944.04 480.641L2916.8 495.143C2912.5 486.354 2907.18 481.959 2900.83 481.959C2897.8 481.959 2895.21 482.984 2893.07 485.035C2890.92 486.988 2889.84 489.527 2889.84 492.652C2889.84 498.121 2896.19 503.541 2908.89 508.912C2926.37 516.432 2938.13 523.365 2944.19 529.713C2950.24 536.061 2953.27 544.605 2953.27 555.348C2953.27 569.117 2948.19 580.641 2938.04 589.918C2928.17 598.707 2916.26 603.102 2902.29 603.102C2878.37 603.102 2861.43 591.432 2851.46 568.092L2879.59 555.055C2883.5 561.891 2886.47 566.236 2888.53 568.092C2892.53 571.803 2897.31 573.658 2902.88 573.658C2914.01 573.658 2919.58 568.58 2919.58 558.424C2919.58 552.564 2915.28 547.096 2906.69 542.018C2903.37 540.357 2900.05 538.746 2896.73 537.184C2893.41 535.621 2890.04 534.01 2886.62 532.35C2877.05 527.662 2870.31 522.975 2866.41 518.287C2861.43 512.33 2858.94 504.664 2858.94 495.289C2858.94 482.887 2863.18 472.633 2871.68 464.527C2880.37 456.422 2890.92 452.369 2903.32 452.369C2921.58 452.369 2935.16 461.793 2944.04 480.641Z" fill="#342014"/>
<path d="M1275.59 885.186C1275.59 876.221 1273.1 869.014 1268.12 863.564C1263.13 858.057 1256.57 855.303 1248.43 855.303C1240.28 855.303 1233.93 857.793 1229.36 862.773C1224.79 867.754 1222.5 874.639 1222.5 883.428C1222.5 893.33 1224.81 901.094 1229.44 906.719C1234.07 912.285 1240.46 915.068 1248.6 915.068C1257.04 915.068 1263.63 912.432 1268.38 907.158C1273.18 901.885 1275.59 894.561 1275.59 885.186ZM1288.95 788.77V925H1275.59V910.41C1272.42 916.211 1268.32 920.664 1263.28 923.77C1258.24 926.875 1252.62 928.428 1246.41 928.428C1234.86 928.428 1225.55 924.473 1218.46 916.562C1211.43 908.594 1207.91 898.076 1207.91 885.01C1207.91 871.826 1211.37 861.309 1218.28 853.457C1225.2 845.605 1234.39 841.68 1245.88 841.68C1252.56 841.68 1258.36 843.203 1263.28 846.25C1268.2 849.238 1272.19 853.721 1275.23 859.697V788.77H1288.95ZM1374.11 875.693C1373.64 868.604 1371.27 863.154 1366.99 859.346C1362.77 855.479 1356.97 853.545 1349.59 853.545C1342.91 853.545 1337.34 855.566 1332.89 859.609C1328.44 863.594 1325.86 868.955 1325.16 875.693H1374.11ZM1388.88 886.855H1325.16V888.086C1325.16 896.699 1327.62 903.672 1332.54 909.004C1337.46 914.277 1343.88 916.914 1351.79 916.914C1357.18 916.914 1362.04 915.479 1366.38 912.607C1370.71 909.678 1374.55 905.283 1377.89 899.424L1388.35 906.455C1384.31 913.721 1379.15 919.199 1372.88 922.891C1366.61 926.582 1359.35 928.428 1351.08 928.428C1338.84 928.428 1328.94 924.385 1321.38 916.299C1313.82 908.213 1310.04 897.607 1310.04 884.482C1310.04 871.885 1313.79 861.572 1321.29 853.545C1328.79 845.518 1338.43 841.504 1350.21 841.504C1362.1 841.504 1371.5 845.312 1378.42 852.93C1385.39 860.547 1388.88 870.947 1388.88 884.131V886.855ZM1401.18 911.465L1412.96 903.555C1415.19 907.832 1418 911.055 1421.4 913.223C1424.79 915.332 1428.81 916.387 1433.44 916.387C1437.95 916.387 1441.58 915.273 1444.34 913.047C1447.15 910.82 1448.55 907.891 1448.55 904.258C1448.55 901.445 1447.59 899.102 1445.65 897.227C1443.78 895.352 1440.53 893.623 1435.9 892.041C1435.43 891.865 1434.67 891.602 1433.61 891.25C1414.04 884.512 1404.26 876.074 1404.26 865.938C1404.26 858.789 1406.89 852.959 1412.17 848.447C1417.44 843.936 1424.3 841.68 1432.73 841.68C1439.71 841.68 1445.68 843.086 1450.66 845.898C1455.64 848.652 1459.22 852.578 1461.39 857.676L1450.22 864.531C1448.58 860.84 1446.15 857.998 1442.93 856.006C1439.77 854.014 1436.07 853.018 1431.86 853.018C1427.81 853.018 1424.5 854.16 1421.92 856.445C1419.4 858.672 1418.14 861.543 1418.14 865.059C1418.14 869.98 1423.48 874.111 1434.14 877.451C1436.13 878.096 1437.71 878.594 1438.89 878.945C1447.62 881.758 1453.68 884.98 1457.08 888.613C1460.54 892.188 1462.27 896.934 1462.27 902.852C1462.27 910.469 1459.54 916.65 1454.09 921.396C1448.7 926.084 1441.64 928.428 1432.91 928.428C1425.41 928.428 1419.02 927.021 1413.75 924.209C1408.54 921.396 1404.35 917.148 1401.18 911.465ZM1544.53 885.537C1544.53 876.455 1542.04 869.16 1537.06 863.652C1532.14 858.086 1525.69 855.303 1517.72 855.303C1509.46 855.303 1503.02 857.852 1498.39 862.949C1493.76 868.047 1491.45 875.166 1491.45 884.307C1491.45 894.033 1493.76 901.533 1498.39 906.807C1503.08 912.08 1509.7 914.717 1518.25 914.717C1526.46 914.717 1532.87 912.168 1537.5 907.07C1542.19 901.914 1544.53 894.736 1544.53 885.537ZM1557.89 844.58V925H1544.53V910.41C1541.31 916.27 1537.18 920.752 1532.14 923.857C1527.16 926.904 1521.56 928.428 1515.35 928.428C1503.81 928.428 1494.49 924.473 1487.4 916.562C1480.37 908.594 1476.86 898.076 1476.86 885.01C1476.86 871.768 1480.28 861.25 1487.14 853.457C1493.99 845.605 1503.16 841.68 1514.65 841.68C1521.39 841.68 1527.22 843.203 1532.14 846.25C1537.12 849.238 1541.13 853.721 1544.18 859.697V844.58H1557.89ZM1582.24 964.199L1604.03 917.09L1572.48 844.58H1588.39L1611.77 902.324L1636.55 844.58H1651.67L1597.71 964.199H1582.24ZM1677.69 844.58V884.131C1677.69 895.674 1679.38 903.76 1682.78 908.389C1686.24 912.959 1692.04 915.244 1700.19 915.244C1708.33 915.244 1714.07 912.988 1717.41 908.477C1720.81 903.906 1722.51 895.791 1722.51 884.131V844.58H1736.57V891.514C1736.57 903.643 1733.47 912.842 1727.26 919.111C1721.04 925.322 1711.9 928.428 1699.83 928.428C1687.88 928.428 1678.8 925.293 1672.59 919.023C1666.38 912.754 1663.27 903.584 1663.27 891.514V844.58H1677.69ZM1763.2 925V844.58H1776.65V856.973C1780.11 851.816 1784.27 847.979 1789.13 845.459C1793.99 842.939 1799.62 841.68 1806.01 841.68C1815.5 841.68 1822.91 844.199 1828.24 849.238C1833.57 854.277 1836.24 861.279 1836.24 870.244V925H1822.18V877.627C1822.18 869.482 1820.45 863.447 1816.99 859.521C1813.59 855.537 1808.32 853.545 1801.17 853.545C1797.07 853.545 1793.32 854.307 1789.92 855.83C1786.58 857.295 1783.8 859.404 1781.57 862.158C1779.87 864.268 1778.64 866.67 1777.88 869.365C1777.18 872.061 1776.83 876.748 1776.83 883.428V925H1763.2ZM1871.66 885.01C1871.66 893.506 1874.5 900.713 1880.19 906.631C1885.87 912.49 1892.75 915.42 1900.84 915.42C1908.87 915.42 1915.69 912.49 1921.32 906.631C1926.94 900.713 1929.76 893.506 1929.76 885.01C1929.76 876.514 1926.94 869.336 1921.32 863.477C1915.69 857.559 1908.87 854.6 1900.84 854.6C1892.7 854.6 1885.78 857.559 1880.1 863.477C1874.47 869.336 1871.66 876.514 1871.66 885.01ZM1857.07 885.01C1857.07 879.092 1858.15 873.525 1860.32 868.311C1862.49 863.037 1865.65 858.35 1869.81 854.248C1873.97 850.146 1878.69 847.041 1883.96 844.932C1889.24 842.764 1894.86 841.68 1900.84 841.68C1906.7 841.68 1912.24 842.764 1917.45 844.932C1922.72 847.1 1927.5 850.264 1931.78 854.424C1935.94 858.467 1939.1 863.125 1941.27 868.398C1943.44 873.613 1944.52 879.15 1944.52 885.01C1944.52 890.869 1943.44 896.406 1941.27 901.621C1939.1 906.777 1935.94 911.377 1931.78 915.42C1927.5 919.639 1922.7 922.861 1917.36 925.088C1912.09 927.314 1906.58 928.428 1900.84 928.428C1894.92 928.428 1889.3 927.314 1883.96 925.088C1878.69 922.92 1873.97 919.785 1869.81 915.684C1865.65 911.465 1862.49 906.777 1860.32 901.621C1858.15 896.465 1857.07 890.928 1857.07 885.01ZM1957.53 911.465L1969.31 903.555C1971.53 907.832 1974.35 911.055 1977.74 913.223C1981.14 915.332 1985.16 916.387 1989.79 916.387C1994.3 916.387 1997.93 915.273 2000.68 913.047C2003.5 910.82 2004.9 907.891 2004.9 904.258C2004.9 901.445 2003.94 899.102 2002 897.227C2000.13 895.352 1996.88 893.623 1992.25 892.041C1991.78 891.865 1991.02 891.602 1989.96 891.25C1970.39 884.512 1960.61 876.074 1960.61 865.938C1960.61 858.789 1963.24 852.959 1968.52 848.447C1973.79 843.936 1980.64 841.68 1989.08 841.68C1996.05 841.68 2002.03 843.086 2007.01 845.898C2011.99 848.652 2015.57 852.578 2017.73 857.676L2006.57 864.531C2004.93 860.84 2002.5 857.998 1999.28 856.006C1996.11 854.014 1992.42 853.018 1988.2 853.018C1984.16 853.018 1980.85 854.16 1978.27 856.445C1975.75 858.672 1974.49 861.543 1974.49 865.059C1974.49 869.98 1979.82 874.111 1990.49 877.451C1992.48 878.096 1994.06 878.594 1995.23 878.945C2003.96 881.758 2010.03 884.98 2013.43 888.613C2016.88 892.188 2018.61 896.934 2018.61 902.852C2018.61 910.469 2015.89 916.65 2010.44 921.396C2005.05 926.084 1997.99 928.428 1989.26 928.428C1981.76 928.428 1975.37 927.021 1970.1 924.209C1964.88 921.396 1960.69 917.148 1957.53 911.465ZM2101.05 905.928V921.924C2097.42 924.092 2093.32 925.703 2088.75 926.758C2084.24 927.871 2079.35 928.428 2074.07 928.428C2061.65 928.428 2051.63 924.502 2044.01 916.65C2036.46 908.74 2032.68 898.369 2032.68 885.537C2032.68 872.646 2036.6 862.129 2044.45 853.984C2052.3 845.781 2062.35 841.68 2074.6 841.68C2079.05 841.68 2083.39 842.148 2087.61 843.086C2091.88 844.023 2095.9 845.4 2099.65 847.217V861.982C2096.13 859.697 2092.5 857.969 2088.75 856.797C2085 855.566 2081.19 854.951 2077.32 854.951C2068.3 854.951 2061.06 857.793 2055.62 863.477C2050.17 869.102 2047.44 876.602 2047.44 885.977C2047.44 894.238 2050.17 901.152 2055.62 906.719C2061.12 912.285 2068.01 915.068 2076.27 915.068C2080.43 915.068 2084.5 914.336 2088.49 912.871C2092.47 911.406 2096.66 909.092 2101.05 905.928ZM2128.3 885.01C2128.3 893.506 2131.14 900.713 2136.83 906.631C2142.51 912.49 2149.39 915.42 2157.48 915.42C2165.51 915.42 2172.33 912.49 2177.96 906.631C2183.58 900.713 2186.4 893.506 2186.4 885.01C2186.4 876.514 2183.58 869.336 2177.96 863.477C2172.33 857.559 2165.51 854.6 2157.48 854.6C2149.34 854.6 2142.42 857.559 2136.74 863.477C2131.11 869.336 2128.3 876.514 2128.3 885.01ZM2113.71 885.01C2113.71 879.092 2114.79 873.525 2116.96 868.311C2119.13 863.037 2122.29 858.35 2126.46 854.248C2130.62 850.146 2135.33 847.041 2140.61 844.932C2145.88 842.764 2151.5 841.68 2157.48 841.68C2163.34 841.68 2168.88 842.764 2174.09 844.932C2179.37 847.1 2184.14 850.264 2188.42 854.424C2192.58 858.467 2195.74 863.125 2197.91 868.398C2200.08 873.613 2201.16 879.15 2201.16 885.01C2201.16 890.869 2200.08 896.406 2197.91 901.621C2195.74 906.777 2192.58 911.377 2188.42 915.42C2184.14 919.639 2179.34 922.861 2174 925.088C2168.73 927.314 2163.22 928.428 2157.48 928.428C2151.56 928.428 2145.94 927.314 2140.61 925.088C2135.33 922.92 2130.62 919.785 2126.46 915.684C2122.29 911.465 2119.13 906.777 2116.96 901.621C2114.79 896.465 2113.71 890.928 2113.71 885.01ZM2222.87 925V844.58H2235.09V861.279C2238.78 854.307 2242.71 849.326 2246.87 846.338C2251.03 843.35 2256.09 841.855 2262.07 841.855C2263.71 841.855 2265.29 842.002 2266.82 842.295C2268.34 842.529 2269.86 842.91 2271.39 843.438L2266.82 855.83C2265.23 855.303 2263.74 854.922 2262.33 854.688C2260.93 854.395 2259.58 854.248 2258.29 854.248C2251.03 854.248 2245.58 856.885 2241.94 862.158C2238.31 867.373 2236.49 875.254 2236.49 885.801V925H2222.87ZM2299.25 885.01C2299.25 894.033 2301.74 901.27 2306.72 906.719C2311.7 912.168 2318.29 914.893 2326.49 914.893C2334.52 914.893 2340.82 912.402 2345.39 907.422C2350.02 902.441 2352.33 895.527 2352.33 886.68C2352.33 876.777 2350.02 869.014 2345.39 863.389C2340.82 857.764 2334.43 854.951 2326.23 854.951C2317.85 854.951 2311.26 857.617 2306.46 862.949C2301.65 868.281 2299.25 875.635 2299.25 885.01ZM2285.98 964.199V844.58H2299.07V859.697C2302.18 853.896 2306.28 849.443 2311.38 846.338C2316.47 843.232 2322.16 841.68 2328.43 841.68C2340.03 841.68 2349.35 845.635 2356.38 853.545C2363.41 861.455 2366.92 871.943 2366.92 885.01C2366.92 898.311 2363.47 908.887 2356.55 916.738C2349.7 924.531 2340.5 928.428 2328.96 928.428C2322.33 928.428 2316.56 926.934 2311.64 923.945C2306.72 920.898 2302.71 916.387 2299.6 910.41V964.199H2285.98ZM2397.07 885.01C2397.07 893.506 2399.91 900.713 2405.6 906.631C2411.28 912.49 2418.16 915.42 2426.25 915.42C2434.28 915.42 2441.1 912.49 2446.73 906.631C2452.35 900.713 2455.17 893.506 2455.17 885.01C2455.17 876.514 2452.35 869.336 2446.73 863.477C2441.1 857.559 2434.28 854.6 2426.25 854.6C2418.11 854.6 2411.19 857.559 2405.51 863.477C2399.88 869.336 2397.07 876.514 2397.07 885.01ZM2382.48 885.01C2382.48 879.092 2383.56 873.525 2385.73 868.311C2387.9 863.037 2391.06 858.35 2395.22 854.248C2399.38 850.146 2404.1 847.041 2409.38 844.932C2414.65 842.764 2420.27 841.68 2426.25 841.68C2432.11 841.68 2437.65 842.764 2442.86 844.932C2448.13 847.1 2452.91 850.264 2457.19 854.424C2461.35 858.467 2464.51 863.125 2466.68 868.398C2468.85 873.613 2469.93 879.15 2469.93 885.01C2469.93 890.869 2468.85 896.406 2466.68 901.621C2464.51 906.777 2461.35 911.377 2457.19 915.42C2452.91 919.639 2448.11 922.861 2442.77 925.088C2437.5 927.314 2431.99 928.428 2426.25 928.428C2420.33 928.428 2414.71 927.314 2409.38 925.088C2404.1 922.92 2399.38 919.785 2395.22 915.684C2391.06 911.465 2387.9 906.777 2385.73 901.621C2383.56 896.465 2382.48 890.928 2382.48 885.01ZM2491.64 925V844.58H2503.86V861.279C2507.55 854.307 2511.47 849.326 2515.63 846.338C2519.79 843.35 2524.86 841.855 2530.84 841.855C2532.48 841.855 2534.06 842.002 2535.59 842.295C2537.11 842.529 2538.63 842.91 2540.16 843.438L2535.59 855.83C2534 855.303 2532.51 854.922 2531.1 854.688C2529.7 854.395 2528.35 854.248 2527.06 854.248C2519.79 854.248 2514.35 856.885 2510.71 862.158C2507.08 867.373 2505.26 875.254 2505.26 885.801V925H2491.64ZM2616.27 885.537C2616.27 876.455 2613.78 869.16 2608.8 863.652C2603.88 858.086 2597.43 855.303 2589.46 855.303C2581.2 855.303 2574.76 857.852 2570.13 862.949C2565.5 868.047 2563.18 875.166 2563.18 884.307C2563.18 894.033 2565.5 901.533 2570.13 906.807C2574.81 912.08 2581.44 914.717 2589.99 914.717C2598.19 914.717 2604.61 912.168 2609.24 907.07C2613.93 901.914 2616.27 894.736 2616.27 885.537ZM2629.63 844.58V925H2616.27V910.41C2613.05 916.27 2608.92 920.752 2603.88 923.857C2598.9 926.904 2593.3 928.428 2587.09 928.428C2575.55 928.428 2566.23 924.473 2559.14 916.562C2552.11 908.594 2548.59 898.076 2548.59 885.01C2548.59 871.768 2552.02 861.25 2558.88 853.457C2565.73 845.605 2574.9 841.68 2586.39 841.68C2593.12 841.68 2598.96 843.203 2603.88 846.25C2608.86 849.238 2612.87 853.721 2615.92 859.697V844.58H2629.63ZM2659.34 855.918H2644.57V844.58H2659.34V812.148H2673.4V844.58H2688.16V855.918H2673.4V925H2659.34V855.918ZM2701.26 805.82C2701.26 803.066 2702.23 800.723 2704.16 798.789C2706.15 796.797 2708.55 795.801 2711.37 795.801C2714.12 795.801 2716.46 796.797 2718.4 798.789C2720.39 800.781 2721.39 803.184 2721.39 805.996C2721.39 808.75 2720.42 811.094 2718.49 813.027C2716.55 814.961 2714.18 815.928 2711.37 815.928C2708.55 815.928 2706.15 814.961 2704.16 813.027C2702.23 811.094 2701.26 808.691 2701.26 805.82ZM2704.51 925V844.58H2718.4V925H2704.51ZM2773.86 930.01L2734.04 844.58H2749.51L2773.68 900.742L2797.94 844.58H2813.41L2773.86 930.01ZM2836.35 885.01C2836.35 893.506 2839.19 900.713 2844.87 906.631C2850.56 912.49 2857.44 915.42 2865.53 915.42C2873.55 915.42 2880.38 912.49 2886.01 906.631C2891.63 900.713 2894.44 893.506 2894.44 885.01C2894.44 876.514 2891.63 869.336 2886.01 863.477C2880.38 857.559 2873.55 854.6 2865.53 854.6C2857.38 854.6 2850.47 857.559 2844.79 863.477C2839.16 869.336 2836.35 876.514 2836.35 885.01ZM2821.76 885.01C2821.76 879.092 2822.84 873.525 2825.01 868.311C2827.18 863.037 2830.34 858.35 2834.5 854.248C2838.66 850.146 2843.38 847.041 2848.65 844.932C2853.93 842.764 2859.55 841.68 2865.53 841.68C2871.39 841.68 2876.92 842.764 2882.14 844.932C2887.41 847.1 2892.19 850.264 2896.46 854.424C2900.62 858.467 2903.79 863.125 2905.96 868.398C2908.12 873.613 2909.21 879.15 2909.21 885.01C2909.21 890.869 2908.12 896.406 2905.96 901.621C2903.79 906.777 2900.62 911.377 2896.46 915.42C2892.19 919.639 2887.38 922.861 2882.05 925.088C2876.78 927.314 2871.27 928.428 2865.53 928.428C2859.61 928.428 2853.98 927.314 2848.65 925.088C2843.38 922.92 2838.66 919.785 2834.5 915.684C2830.34 911.465 2827.18 906.777 2825.01 901.621C2822.84 896.465 2821.76 890.928 2821.76 885.01ZM2922.22 911.465L2933.99 903.555C2936.22 907.832 2939.03 911.055 2942.43 913.223C2945.83 915.332 2949.84 916.387 2954.47 916.387C2958.98 916.387 2962.62 915.273 2965.37 913.047C2968.18 910.82 2969.59 907.891 2969.59 904.258C2969.59 901.445 2968.62 899.102 2966.69 897.227C2964.81 895.352 2961.56 893.623 2956.93 892.041C2956.46 891.865 2955.7 891.602 2954.65 891.25C2935.08 884.512 2925.29 876.074 2925.29 865.938C2925.29 858.789 2927.93 852.959 2933.2 848.447C2938.48 843.936 2945.33 841.68 2953.77 841.68C2960.74 841.68 2966.72 843.086 2971.7 845.898C2976.68 848.652 2980.25 852.578 2982.42 857.676L2971.26 864.531C2969.62 860.84 2967.19 857.998 2963.96 856.006C2960.8 854.014 2957.11 853.018 2952.89 853.018C2948.85 853.018 2945.54 854.16 2942.96 856.445C2940.44 858.672 2939.18 861.543 2939.18 865.059C2939.18 869.98 2944.51 874.111 2955.18 877.451C2957.17 878.096 2958.75 878.594 2959.92 878.945C2968.65 881.758 2974.72 884.98 2978.12 888.613C2981.57 892.188 2983.3 896.934 2983.3 902.852C2983.3 910.469 2980.58 916.65 2975.13 921.396C2969.74 926.084 2962.68 928.428 2953.95 928.428C2946.45 928.428 2940.06 927.021 2934.79 924.209C2929.57 921.396 2925.38 917.148 2922.22 911.465ZM3005.98 916.387C3005.98 913.516 3007 911.055 3009.05 909.004C3011.1 906.953 3013.56 905.928 3016.44 905.928C3019.37 905.928 3021.86 906.953 3023.91 909.004C3026.02 910.996 3027.07 913.457 3027.07 916.387C3027.07 919.258 3026.04 921.689 3023.99 923.682C3021.94 925.615 3019.42 926.582 3016.44 926.582C3013.51 926.582 3011.02 925.615 3008.96 923.682C3006.97 921.689 3005.98 919.258 3005.98 916.387ZM3070.4 885.01C3070.4 894.033 3072.89 901.27 3077.87 906.719C3082.85 912.168 3089.44 914.893 3097.65 914.893C3105.67 914.893 3111.97 912.402 3116.54 907.422C3121.17 902.441 3123.49 895.527 3123.49 886.68C3123.49 876.777 3121.17 869.014 3116.54 863.389C3111.97 857.764 3105.59 854.951 3097.38 854.951C3089 854.951 3082.41 857.617 3077.61 862.949C3072.8 868.281 3070.4 875.635 3070.4 885.01ZM3057.13 964.199V844.58H3070.22V859.697C3073.33 853.896 3077.43 849.443 3082.53 846.338C3087.63 843.232 3093.31 841.68 3099.58 841.68C3111.18 841.68 3120.5 845.635 3127.53 853.545C3134.56 861.455 3138.08 871.943 3138.08 885.01C3138.08 898.311 3134.62 908.887 3127.71 916.738C3120.85 924.531 3111.65 928.428 3100.11 928.428C3093.49 928.428 3087.71 926.934 3082.79 923.945C3077.87 920.898 3073.86 916.387 3070.75 910.41V964.199H3057.13ZM3217.18 875.693C3216.71 868.604 3214.34 863.154 3210.06 859.346C3205.84 855.479 3200.04 853.545 3192.66 853.545C3185.98 853.545 3180.41 855.566 3175.96 859.609C3171.5 863.594 3168.93 868.955 3168.22 875.693H3217.18ZM3231.94 886.855H3168.22V888.086C3168.22 896.699 3170.68 903.672 3175.61 909.004C3180.53 914.277 3186.94 916.914 3194.85 916.914C3200.24 916.914 3205.11 915.479 3209.44 912.607C3213.78 909.678 3217.62 905.283 3220.96 899.424L3231.42 906.455C3227.37 913.721 3222.22 919.199 3215.95 922.891C3209.68 926.582 3202.41 928.428 3194.15 928.428C3181.9 928.428 3172 924.385 3164.44 916.299C3156.88 908.213 3153.11 897.607 3153.11 884.482C3153.11 871.885 3156.86 861.572 3164.36 853.545C3171.86 845.518 3181.49 841.504 3193.27 841.504C3205.17 841.504 3214.57 845.312 3221.48 852.93C3228.46 860.547 3231.94 870.947 3231.94 884.131V886.855Z" fill="#A17643"/>
</svg>
