<svg width="200" height="60" viewBox="0 0 200 60" fill="none" xmlns="http://www.w3.org/2000/svg">
<g clip-path="url(#clip0_20_1373)">
<path d="M40.8936 51.2834C39.5504 51.2834 31.9514 51.0643 27.8737 46.2161C27.2788 45.5018 27.3747 44.435 28.0943 43.8444C28.8139 43.2444 29.8885 43.3491 30.4834 44.0635C32.8917 46.94 37.3148 47.6735 39.5791 47.864C39.7998 45.6161 39.867 41.1679 37.4587 38.2914C34.1294 34.329 27.0006 34.4338 26.9334 34.4338C26.9238 34.4338 26.9046 34.4338 26.895 34.4338H24.6019C24.1701 35.5673 23.7288 36.7579 23.3162 38.0342C22.4815 40.7679 20.8312 44.5683 17.6458 47.2067C11.6107 52.2073 2.69729 51.1786 2.3231 51.131C1.4308 51.0262 0.778362 50.2452 0.83593 49.3594C0.855119 48.9879 1.44999 40.1011 7.48503 35.1005C11.7355 31.5858 17.4251 31.062 20.4474 31.062H22.3088C22.635 30.2904 22.9516 29.5475 23.2586 28.8236H22.184C21.5796 28.8331 13.309 28.8903 8.99139 23.7563C4.60663 18.5367 6.2761 10.2881 6.34326 9.93564C6.50637 9.17365 7.178 8.61168 7.96476 8.59263C8.31976 8.59263 16.7918 8.44023 21.1766 13.6599C21.7715 14.3743 21.6755 15.4411 20.9559 16.0316C20.2363 16.6317 19.1617 16.5269 18.5669 15.8125C16.1586 12.936 11.7355 12.2026 9.47112 12.0121C9.25044 14.26 9.18328 18.7081 11.5915 21.5751C14.9209 25.5375 22.0497 25.4327 22.1169 25.4327C22.1265 25.4327 22.1457 25.4327 22.1553 25.4327H24.7266C25.3887 23.9183 25.9643 22.5371 26.3961 21.2322C27.5858 17.5746 29.4376 14.6886 31.8842 12.6598C37.9193 7.65918 46.8327 8.68788 47.2069 8.7355C48.0992 8.84028 48.742 9.62132 48.6941 10.5071C48.6749 10.8786 48.08 19.7654 42.045 24.766C39.819 26.6138 35.7317 28.8046 28.9291 28.8046H26.943C26.6264 29.5189 26.3001 30.2714 25.9643 31.0429H26.8566C27.4611 31.0334 35.7317 30.9762 40.0493 36.1102C44.434 41.3298 42.7646 49.5784 42.6974 49.9309C42.5343 50.6929 41.8627 51.2548 41.0759 51.2739C41.0471 51.2739 40.9896 51.2739 40.884 51.2739M4.43393 47.864C7.00529 47.883 11.9657 47.502 15.4678 44.6064C18.0104 42.5014 19.3728 39.3296 20.0732 37.0341C20.0732 37.0246 20.0732 37.0055 20.0828 36.996C20.3802 36.1007 20.6777 35.2434 20.9751 34.4243H20.4378C17.876 34.4243 13.0787 34.8434 9.65342 37.6818C6.14177 40.5869 4.87528 45.3398 4.43393 47.864ZM44.9042 12.0121C42.2752 12.0121 37.4683 12.4407 34.0622 15.2696C32.1145 16.8793 30.6273 19.2415 29.6295 22.299C29.2841 23.3277 28.8811 24.3659 28.4206 25.4613H28.9387C31.5484 25.4613 36.4513 25.0327 39.8766 22.2038C43.369 19.3177 44.6451 14.5457 45.0865 12.0216H44.9042" fill="#E4C3AC"/>
<path d="M16.3217 8.35456C16.8782 8.51648 17.4731 8.3736 17.8953 7.99261C20.3707 5.70662 23.6617 4.27788 27.298 4.19216C30.8864 4.10643 34.2062 5.34467 36.7871 7.44969C37.2093 7.80211 37.785 7.91641 38.3127 7.74496C38.3511 7.73543 38.3894 7.71638 38.4374 7.70686C39.6847 7.31634 40.0014 5.71615 38.9939 4.88748C35.7989 2.24907 31.6732 0.706026 27.2117 0.8108C22.683 0.9251 18.5957 2.71579 15.5254 5.57327C14.6043 6.43052 14.9785 7.97356 16.197 8.31646C16.2354 8.32598 16.2738 8.33551 16.3122 8.35456" fill="#EDD4BB"/>
<path d="M34.7627 52.1598C34.3021 52.0931 33.832 52.236 33.4674 52.5313C31.1455 54.4458 28.1999 55.6555 24.9569 55.7983C20.9656 55.9793 17.2812 54.5125 14.5563 51.9979C14.0574 51.5407 13.3378 51.4169 12.7237 51.7026C12.6854 51.7217 12.6566 51.7312 12.6182 51.7502C11.5628 52.236 11.3517 53.6266 12.196 54.4172C15.5638 57.5414 20.1404 59.3797 25.1008 59.1606C29.169 58.9797 32.8533 57.4461 35.7413 55.0268C36.8255 54.1219 36.2978 52.3693 34.897 52.1693C34.849 52.1693 34.801 52.1598 34.7531 52.1503" fill="#EDD4BB"/>
</g>
<g clip-path="url(#clip1_20_1373)">
<path d="M82.355 33.3409C81.7512 35.2501 81.1029 37.1418 80.0995 38.8927C78.6876 41.365 76.6186 42.9663 73.7238 43.1862C71.4505 43.3622 69.1506 43.3094 66.8685 43.3006C66.0161 43.3006 65.7319 42.9311 65.6964 42.0865C65.6964 41.9193 65.6786 41.7521 65.6964 41.5849C65.8473 40.3884 65.9894 39.2006 66.1759 38.0128C66.8596 33.7016 67.5434 29.3904 68.2627 25.0881C68.4847 23.7507 68.7599 22.4222 69.124 21.12C69.4526 19.941 70.3228 19.246 71.5393 19.026C72.1165 18.9204 72.7203 18.9028 73.3064 18.8412C73.4219 18.8324 73.5373 18.7621 73.6527 18.7181C73.635 18.6653 73.6261 18.6125 73.6083 18.5597H73.1555C71.4594 18.5597 69.7634 18.5597 68.0673 18.5597C66.389 18.5597 64.7018 18.5597 63.0235 18.5597C62.8726 18.5597 62.7216 18.6389 62.5707 18.6829L62.6062 18.8412C62.7572 18.8412 62.9081 18.8412 63.0591 18.8412C64.8617 18.9204 65.5188 19.5715 65.4477 21.3488C65.4122 22.4046 65.2524 23.4692 65.0926 24.5162C64.3822 29.0473 63.6629 33.5785 62.9081 38.1008C62.7128 39.2534 62.4286 40.3972 62.0823 41.5146C61.807 42.4208 61.1144 42.9751 60.1642 43.1686C59.7646 43.2478 59.3562 43.2566 58.9477 43.3182C58.8323 43.3358 58.7257 43.4238 58.6191 43.4854L58.6813 43.591H79.5134C80.579 40.0364 81.6446 36.5083 82.7102 32.9714C82.6569 32.9538 82.6036 32.9274 82.5415 32.9098C82.4704 33.0506 82.3905 33.1913 82.3461 33.3321" fill="white"/>
<path d="M158.553 27.2172C159.441 26.6717 160.143 26.2494 160.693 25.9942C160.844 25.9942 160.986 26.0206 161.128 26.1262C161.501 26.3902 161.368 26.8301 161.315 27.182C160.871 30.1295 160.4 33.0681 159.938 36.0156C159.707 37.4937 159.441 38.963 159.628 40.4763C159.841 42.28 160.826 43.5205 162.442 43.7581C163.304 43.8813 164.236 43.8901 165.089 43.7229C167.912 43.1598 169.946 41.4265 171.491 39.1126C172.139 38.136 172.637 37.0714 173.178 36.1035C173.045 36.9658 172.867 37.916 172.743 38.875C172.61 39.9308 172.45 40.9866 172.468 42.0424C172.494 43.4853 173.48 44.2156 174.91 44.0044L174.928 43.9869C176.934 43.6789 178.879 42.0776 180.513 40.2388C180.442 40.7227 180.362 41.2066 180.291 41.6905C180.176 42.412 180.078 43.1422 179.971 43.8549C181.037 43.7581 182.058 43.6701 183.106 43.5733C183.399 41.7257 183.683 39.8604 184.003 38.004C184.207 36.781 184.349 35.5316 184.722 34.3527C185.113 33.1033 185.681 31.9067 186.276 30.7366C187.191 28.9329 188.372 27.314 190.059 26.1262C191 25.4663 192.03 25.0176 193.211 25.0968C194.072 25.1496 194.774 25.4927 195.12 26.3286C195.698 27.7363 194.916 29.4872 193.486 30.0415C193.398 30.0767 193.273 30.1559 193.247 30.235C193.051 31.0445 193.335 32.0563 194.392 32.2411C195.271 32.3994 196.026 32.1091 196.639 31.5108C197.758 30.411 198.113 29.0561 197.838 27.5428C197.553 25.9591 196.514 24.956 194.925 24.6657C193.398 24.3841 191.941 24.6393 190.592 25.396C188.833 26.3726 187.59 27.8507 186.631 29.5576C185.921 30.8245 185.317 32.1443 184.66 33.4552C184.873 32.2059 185.095 30.9477 185.308 29.6808C185.495 28.5634 185.725 27.446 185.832 26.3286C185.93 25.2904 185.37 24.8065 184.314 24.8505C184.234 24.8505 184.145 24.8505 184.056 24.8681C182.404 25.1056 181.064 25.9766 179.785 26.9709C179.723 27.0149 179.732 27.1556 179.678 27.3668C179.998 27.1292 180.184 26.9621 180.398 26.8301C180.797 26.5925 181.188 26.3374 181.623 26.179C182.262 25.9415 182.6 26.1878 182.546 26.8565C182.502 27.4548 182.387 28.0443 182.298 28.6425C181.729 32.3379 181.161 36.0244 180.593 39.7197C178.391 42.2184 176.49 43.151 175.736 43.151C175.531 43.063 175.363 42.6935 175.354 42.4471C175.327 41.9192 175.372 41.3825 175.451 40.8634C176.224 35.9716 177.005 31.0797 177.787 26.1966C177.858 25.7215 177.929 25.2464 177.991 24.8153C176.934 24.9033 175.94 24.9912 174.919 25.0704C174.901 25.132 174.865 25.2376 174.848 25.352C174.439 27.8947 174.04 30.4374 173.631 32.9801C173.498 33.8248 173.462 34.7046 173.178 35.4965C172.503 37.3529 171.491 39.0334 170.115 40.4851C168.916 41.7521 167.539 42.7463 165.746 43.0278C163.881 43.327 162.807 42.5791 162.602 40.7403C162.513 39.9572 162.54 39.139 162.656 38.3559C163.171 34.8982 163.748 31.4492 164.281 27.9915C164.387 27.2788 164.485 26.5485 164.485 25.8271C164.485 25.1408 164.059 24.8065 163.366 24.7713C163.197 24.7713 163.029 24.7713 162.86 24.7889C162.833 24.7889 162.815 24.7977 162.789 24.7977C161.475 24.8329 159.485 26.1878 158.411 26.8917C157.985 27.1644 157.239 27.7187 156.324 28.2378C155.587 26.7509 154.335 25.6599 152.559 25.0792C150.996 24.5601 149.469 24.4193 148.013 24.6217C138.653 25.6247 138.298 36.4027 137.117 39.8868C136.602 41.4177 136.096 42.3944 135.572 42.8783C135.208 43.2038 135.066 43.283 134.755 43.239C134.524 43.2126 134.338 43.0278 134.293 42.7287C134.222 42.3064 134.187 41.8577 134.258 41.4441C134.808 37.96 135.394 34.4846 135.945 31.0093C136.105 29.9887 136.3 28.9593 136.3 27.9299C136.3 25.5631 134.649 24.2698 132.295 24.6481C130.67 24.912 129.401 25.7919 128.291 26.9181C126.594 28.6337 125.422 30.6838 124.392 32.8306C124.321 32.9713 124.259 33.1121 124.188 33.2529C124.188 32.7514 124.277 32.2851 124.339 31.8187C124.499 30.5958 124.756 29.3816 124.765 28.1586C124.783 25.396 122.865 24.0234 120.174 24.7713C118.78 25.1584 117.679 25.9854 116.693 26.9973C114.989 28.7569 113.816 30.8597 112.769 33.0417C112.698 33.1825 112.626 33.3233 112.564 33.464C112.502 33.3585 112.502 33.2705 112.511 33.1913C112.751 31.8012 112.991 30.411 113.221 29.0121C113.372 28.0707 113.55 27.138 113.621 26.1878C113.683 25.2904 113.177 24.8505 112.271 24.8505C112.156 24.8505 112.04 24.8505 111.934 24.8681C110.256 25.088 108.915 25.9766 107.627 26.9797C107.565 27.0237 107.583 27.1644 107.529 27.3668C107.858 27.1204 108.071 26.9269 108.311 26.7861C108.693 26.5661 109.083 26.3198 109.51 26.1702C110.105 25.9591 110.433 26.2054 110.389 26.8213C110.344 27.4372 110.229 28.0443 110.14 28.6513C109.572 32.3554 108.995 36.0507 108.426 39.7549C106.118 42.368 104.084 43.459 103.48 43.0982C103.107 42.9311 103.072 42.5703 103.098 42.236C103.161 41.5145 103.232 40.7931 103.347 40.0716C103.951 36.2267 104.564 32.3906 105.176 28.5546C105.363 27.3844 105.549 26.2142 105.727 25.0352H105.656C105.558 25.2376 105.469 25.4663 105.345 25.6599C104.919 26.3198 104.519 26.9973 104.04 27.6131C103.64 28.1322 103.454 28.0883 103.09 27.5604C102.832 27.1732 102.592 26.7773 102.308 26.4166C101.589 25.4839 100.648 24.8681 99.4665 24.6745C97.5929 24.3666 95.808 24.7097 94.1209 25.5367C91.1728 26.9885 89.2369 29.3728 88.0026 32.3378C86.9992 34.7486 86.6351 37.2385 87.3278 39.8076C87.7185 41.2418 88.4466 42.4823 89.7964 43.2302C91.7322 44.2948 93.6858 44.11 95.586 43.1246C97.5219 42.1216 98.8272 40.5027 99.8395 38.6287C100.221 37.9248 100.532 37.1769 100.914 36.3587C100.745 37.4585 100.594 38.4703 100.434 39.4733C100.283 40.4587 100.097 41.4353 100.31 42.4295C100.514 43.3974 101.118 43.8989 102.113 43.9341H102.45C104.546 43.9341 106.624 42.28 108.373 40.2564C108.302 40.7403 108.222 41.2242 108.151 41.7169C108.036 42.4471 107.938 43.1686 107.831 43.8813C108.906 43.7845 109.918 43.6965 110.948 43.5997C110.957 43.5645 110.984 43.5293 110.984 43.4941C111.357 41.101 111.721 38.7078 112.12 36.3235C112.28 35.3381 112.369 34.3439 112.848 33.4112C113.905 31.3964 114.962 29.3904 116.516 27.6923C117.288 26.8477 118.141 26.091 119.322 25.8359C120.494 25.5807 121.382 26.091 121.586 27.2524C121.711 27.9563 121.755 28.7129 121.648 29.4168C121.027 33.4992 120.352 37.5641 119.686 41.6377C119.562 42.3856 119.446 43.1422 119.331 43.8813C120.387 43.7845 121.391 43.6965 122.43 43.5997C122.776 41.4705 123.122 39.3237 123.469 37.1681C123.726 35.5404 123.948 33.9304 124.81 32.4434C125.893 30.587 126.914 28.7041 128.486 27.1908C129.179 26.5309 129.933 25.9854 130.91 25.8007C131.967 25.5983 132.81 26.0558 133.032 27.094C133.183 27.7803 133.254 28.5194 133.157 29.2056C132.668 32.5402 132.1 35.866 131.576 39.1918C131.443 40.0716 131.283 40.969 131.292 41.8577C131.31 43.2742 132.1 44.0572 133.379 44.0484L133.352 44.066C133.592 44.066 133.867 44.0308 134.151 43.9605C134.48 43.8901 134.773 43.7757 135.048 43.6261C135.865 43.2038 136.655 42.4735 137.064 41.3474C137.73 39.5085 138.209 37.1593 138.875 34.8278C138.822 35.3117 138.787 35.8044 138.769 36.3147C138.822 36.781 138.858 37.5113 139.009 38.2151C139.568 40.7843 141.042 42.6231 143.599 43.4765C147.515 44.7787 152.106 43.2654 154.637 39.9132C156.795 37.0538 157.612 33.8336 157.035 30.3318C156.937 29.7071 156.768 29.1265 156.537 28.5898C156.537 28.5898 157.798 27.7363 158.597 27.2436M101.793 30.5958C101.669 31.8012 101.402 32.9977 101.216 34.2031C100.905 36.2707 99.9904 38.0832 98.8183 39.79C98.0102 40.9602 97.0423 41.9896 95.7459 42.6143C95.1243 42.9135 94.4228 43.1334 93.739 43.2038C92.3893 43.3446 91.4391 42.7199 90.8797 41.4969C90.3292 40.2915 90.2848 39.007 90.2404 37.6696C90.338 34.2031 91.1639 30.9037 93.1796 27.9651C94.0942 26.6277 95.2486 25.5631 96.847 25.0616C97.6728 24.8065 98.5164 24.7625 99.36 24.9384C100.639 25.2024 101.633 26.2494 101.811 27.7275C101.926 28.6777 101.891 29.6544 101.793 30.6046M154.175 30.8949C154.087 33.4112 153.696 35.866 152.781 38.2063C152.106 39.9308 151.201 41.5233 149.638 42.6407C148.341 43.5645 146.885 43.8549 145.331 43.5381C143.466 43.1598 142.534 41.8753 142.125 40.142C141.752 38.5495 141.868 36.9394 142.045 35.3381C142.276 33.2265 142.782 31.1853 143.715 29.2584C144.434 27.7891 145.349 26.4694 146.787 25.5983C148.137 24.7801 149.602 24.6041 151.103 25.044C152.808 25.5455 153.571 26.8653 153.891 28.4754C153.936 28.7129 153.971 28.9593 154.007 29.2056C153.225 29.3992 152.417 29.4432 151.653 29.2056C148.679 28.2818 148.066 27.2612 148.066 27.2612C148.066 27.2612 148.741 29.232 152.266 29.6808C152.914 29.7599 153.5 29.7335 154.069 29.6192C154.113 30.0415 154.14 30.4638 154.184 30.8773" fill="white"/>
<path d="M84.7348 16.6416C83.9623 16.3776 83.2697 16.5976 82.7102 17.1431C82.1774 17.671 81.7778 18.2517 81.9998 19.1139C82.577 21.3311 82.6303 23.5923 82.5238 25.8622C82.5238 26.003 82.5238 26.1526 82.5238 26.2934C82.5682 26.311 82.6126 26.3198 82.657 26.3373C82.6747 26.3022 82.7013 26.267 82.7102 26.2318C82.7369 26.135 82.7635 26.047 82.7901 25.9502C83.4295 23.5043 84.2731 21.1375 85.5429 18.9379C86.0135 18.1197 85.6228 16.9495 84.7171 16.6416" fill="white"/>
</g>
<defs>
<clipPath id="clip0_20_1373">
<rect width="47.8869" height="58.3784" fill="white" transform="translate(0.816772 0.810791)"/>
</clipPath>
<clipPath id="clip1_20_1373">
<rect width="139.316" height="27.5036" fill="white" transform="translate(58.6014 16.5272)"/>
</clipPath>
</defs>
</svg>
